{
  "accessors": [
    {
      "bufferView": 2,
      "componentType": 5126,
      "count": 65532,
      "max": [
        0.7606045603752136,
        20.828540802001953,
        -1.463663101196289
      ],
      "min": [
        -18.322067260742188,
        9.334360122680664,
        -19.598175048828125
      ],
      "type": "VEC3"
    },
    {
      "bufferView": 2,
      "byteOffset": 786384,
      "componentType": 5126,
      "count": 65532,
      "max": [
        0.9999995827674866,
        0.9998986721038818,
        0.9962875247001648
      ],
      "min": [
        -0.9997192621231079,
        -0.9999865293502808,
        -0.9999672174453735
      ],
      "type": "VEC3"
    },
    {
      "bufferView": 1,
      "componentType": 5126,
      "count": 65532,
      "max": [
        0.9965509176254272,
        0.9995698928833008
      ],
      "min": [
        0.00390625,
        0.01962612010538578
      ],
      "type": "VEC2"
    },
    {
      "bufferView": 0,
      "componentType": 5125,
      "count": 309918,
      "type": "SCALAR"
    },
    {
      "bufferView": 2,
      "byteOffset": 1572768,
      "componentType": 5126,
      "count": 65532,
      "max": [
        0.4399258494377136,
        22.049827575683594,
        5.6251373291015625
      ],
      "min": [
        -13.402824401855469,
        -1.5275450944900513,
        -11.745829582214355
      ],
      "type": "VEC3"
    },
    {
      "bufferView": 2,
      "byteOffset": 2359152,
      "componentType": 5126,
      "count": 65532,
      "max": [
        0.9999575018882751,
        0.9997360706329346,
        0.998967707157135
      ],
      "min": [
        -0.999960720539093,
        -0.9999552965164185,
        -0.9999918937683105
      ],
      "type": "VEC3"
    },
    {
      "bufferView": 1,
      "byteOffset": 524256,
      "componentType": 5126,
      "count": 65532,
      "max": [
        0.9907492995262146,
        0.9997355937957764
      ],
      "min": [
        0.0003025537298526615,
        0.028999514877796173
      ],
      "type": "VEC2"
    },
    {
      "bufferView": 0,
      "byteOffset": 1239672,
      "componentType": 5125,
      "count": 318042,
      "type": "SCALAR"
    },
    {
      "bufferView": 2,
      "byteOffset": 3145536,
      "componentType": 5126,
      "count": 65532,
      "max": [
        -0.21165402233600616,
        16.278127670288086,
        4.128435134887695
      ],
      "min": [
        -22.985210418701172,
        -0.9935089349746704,
        -5.874003887176514
      ],
      "type": "VEC3"
    },
    {
      "bufferView": 2,
      "byteOffset": 3931920,
      "componentType": 5126,
      "count": 65532,
      "max": [
        0.9999690055847168,
        0.9999855756759644,
        0.9978687167167664
      ],
      "min": [
        -0.9999268651008606,
        -0.9999876022338867,
        -0.9999645948410034
      ],
      "type": "VEC3"
    },
    {
      "bufferView": 1,
      "byteOffset": 1048512,
      "componentType": 5126,
      "count": 65532,
      "max": [
        0.9953389763832092,
        0.9991844892501831
      ],
      "min": [
        0.00017222858150489628,
        0.04626693204045296
      ],
      "type": "VEC2"
    },
    {
      "bufferView": 0,
      "byteOffset": 2511840,
      "componentType": 5125,
      "count": 319926,
      "type": "SCALAR"
    },
    {
      "bufferView": 2,
      "byteOffset": 4718304,
      "componentType": 5126,
      "count": 65532,
      "max": [
        0.6497647166252136,
        20.049571990966797,
        4.381076335906982
      ],
      "min": [
        -22.246484756469727,
        -0.7241216897964478,
        -19.7164363861084
      ],
      "type": "VEC3"
    },
    {
      "bufferView": 2,
      "byteOffset": 5504688,
      "componentType": 5126,
      "count": 65532,
      "max": [
        0.9999799132347107,
        0.999885618686676,
        0.9995460510253906
      ],
      "min": [
        -0.9999847412109375,
        -0.9999876022338867,
        -0.999985933303833
      ],
      "type": "VEC3"
    },
    {
      "bufferView": 1,
      "byteOffset": 1572768,
      "componentType": 5126,
      "count": 65532,
      "max": [
        0.9970238208770752,
        0.9997539520263672
      ],
      "min": [
        0.00013839133316650987,
        0.02185807377099991
      ],
      "type": "VEC2"
    },
    {
      "bufferView": 0,
      "byteOffset": 3791544,
      "componentType": 5125,
      "count": 223218,
      "type": "SCALAR"
    },
    {
      "bufferView": 2,
      "byteOffset": 6291072,
      "componentType": 5126,
      "count": 31637,
      "max": [
        -0.12018616497516632,
        22.02469253540039,
        5.6018781661987305
      ],
      "min": [
        -22.985210418701172,
        -1.5517269372940063,
        -11.875956535339355
      ],
      "type": "VEC3"
    },
    {
      "bufferView": 2,
      "byteOffset": 6670716,
      "componentType": 5126,
      "count": 31637,
      "max": [
        0.9999445080757141,
        0.9998207092285156,
        0.9996153712272644
      ],
      "min": [
        -0.9999844431877136,
        -0.9998212456703186,
        -0.9999998807907104
      ],
      "type": "VEC3"
    },
    {
      "bufferView": 1,
      "byteOffset": 2097024,
      "componentType": 5126,
      "count": 31637,
      "max": [
        0.996583104133606,
        0.9997386932373047
      ],
      "min": [
        0.00014916677901055664,
        0.04264846444129944
      ],
      "type": "VEC2"
    },
    {
      "bufferView": 0,
      "byteOffset": 4684416,
      "componentType": 5125,
      "count": 93846,
      "type": "SCALAR"
    }
  ],
  "asset": {
    "extras": {
      "author": "Sara Carena (https://sketchfab.com/saracarena1)",
      "license": "CC-BY-NC-4.0 (http://creativecommons.org/licenses/by-nc/4.0/)",
      "source": "https://sketchfab.com/3d-models/taroko-gorge-taiwan-9acbefa8809d4acc9c00a63c9fafa347",
      "title": "Taroko Gorge, Taiwan"
    },
    "generator": "Sketchfab-12.68.0",
    "version": "2.0"
  },
  "bufferViews": [
    {
      "buffer": 0,
      "byteLength": 5059800,
      "name": "floatBufferViews",
      "target": 34963
    },
    {
      "buffer": 0,
      "byteLength": 2350120,
      "byteOffset": 5059800,
      "byteStride": 8,
      "name": "floatBufferViews",
      "target": 34962
    },
    {
      "buffer": 0,
      "byteLength": 7050360,
      "byteOffset": 7409920,
      "byteStride": 12,
      "name": "floatBufferViews",
      "target": 34962
    }
  ],
  "buffers": [
    {
      "byteLength": 14460280,
      "uri": "scene.bin"
    }
  ],
  "extensionsUsed": [
    "KHR_materials_unlit"
  ],
  "images": [
    {
      "uri": "textures/material0_baseColor.jpeg"
    }
  ],
  "materials": [
    {
      "doubleSided": true,
      "extensions": {
        "KHR_materials_unlit": {}
      },
      "name": "material0",
      "pbrMetallicRoughness": {
        "baseColorTexture": {
          "index": 0
        },
        "metallicFactor": 0.0
      }
    }
  ],
  "meshes": [
    {
      "name": "Model_material0_0",
      "primitives": [
        {
          "attributes": {
            "NORMAL": 1,
            "POSITION": 0,
            "TEXCOORD_0": 2
          },
          "indices": 3,
          "material": 0,
          "mode": 4
        }
      ]
    },
    {
      "name": "Model_material0_0",
      "primitives": [
        {
          "attributes": {
            "NORMAL": 5,
            "POSITION": 4,
            "TEXCOORD_0": 6
          },
          "indices": 7,
          "material": 0,
          "mode": 4
        }
      ]
    },
    {
      "name": "Model_material0_0",
      "primitives": [
        {
          "attributes": {
            "NORMAL": 9,
            "POSITION": 8,
            "TEXCOORD_0": 10
          },
          "indices": 11,
          "material": 0,
          "mode": 4
        }
      ]
    },
    {
      "name": "Model_material0_0",
      "primitives": [
        {
          "attributes": {
            "NORMAL": 13,
            "POSITION": 12,
            "TEXCOORD_0": 14
          },
          "indices": 15,
          "material": 0,
          "mode": 4
        }
      ]
    },
    {
      "name": "Model_material0_0",
      "primitives": [
        {
          "attributes": {
            "NORMAL": 17,
            "POSITION": 16,
            "TEXCOORD_0": 18
          },
          "indices": 19,
          "material": 0,
          "mode": 4
        }
      ]
    }
  ],
  "nodes": [
    {
      "children": [
        1
      ],
      "matrix": [
        0.9825275540351868,
        0.18605999648571014,
        -0.004612019285559613,
        0.0,
        -0.08411526679992676,
        0.4218099415302279,
        -0.9027740359306334,
        0.0,
        -0.16602474451065063,
        0.8873883485794066,
        0.4300903677940371,
        0.0,
        0.11348568648099899,
        7.184125423431397,
        -2.0850276947021467,
        1.0
      ],
      "name": "Sketchfab_model"
    },
    {
      "children": [
        2
      ],
      "matrix": [
        1.0,
        0.0,
        0.0,
        0.0,
        0.0,
        -1.0,
        0.0,
        0.0,
        0.0,
        0.0,
        -1.0,
        0.0,
        0.0,
        0.0,
        0.0,
        1.0
      ],
      "name": "model.fbx"
    },
    {
      "children": [
        3
      ],
      "name": "RootNode"
    },
    {
      "children": [
        4,
        5,
        6,
        7,
        8
      ],
      "name": "Model"
    },
    {
      "mesh": 0,
      "name": "Model_material0_0"
    },
    {
      "mesh": 1,
      "name": "Model_material0_0"
    },
    {
      "mesh": 2,
      "name": "Model_material0_0"
    },
    {
      "mesh": 3,
      "name": "Model_material0_0"
    },
    {
      "mesh": 4,
      "name": "Model_material0_0"
    }
  ],
  "samplers": [
    {
      "magFilter": 9729,
      "minFilter": 9987,
      "wrapS": 10497,
      "wrapT": 10497
    }
  ],
  "scene": 0,
  "scenes": [
    {
      "name": "Sketchfab_Scene",
      "nodes": [
        0
      ]
    }
  ],
  "textures": [
    {
      "sampler": 0,
      "source": 0
    }
  ]
}
